# xmcd CD database file
#
# Track frame offsets:
#	194
#	39696
#	65663
#	96967
#	120503
#	167374
#	186075
#	190337
#	225898
#	231760
#	251826
#	274159
#
# Disc length: 3948 seconds
#
# Revision: 0
# Processed by: cddbd v1.5.2PL0 Copyright (c) Steve Scherf et al.
# Submitted via: CDex 1.70beta2
#
DISCID=9f0f6a0c
DTITLE=Afrodisax - Ostinati and Other Music For Imaginary Movies
DYEAR=2008
DGENRE=Jazz
TTITLE0=The Ballad Of The Solitary Bird
TTITLE1=Ostinato I
TTITLE2=Low Burnt Fire
TTITLE3=The Wisdom Is The Hard Part
TTITLE4=Castle In The Clouds
TTITLE5=Abandoned Town
TTITLE6=Nucleus I
TTITLE7=Highlands
TTITLE8=Nucleus II
TTITLE9=Requiem
TTITLE10=Ostinato II
TTITLE11=The Ballad Of The Solitary Bird (Return)
EXTD=YEAR: 2008
EXTT0=
EXTT1=
EXTT2=
EXTT3=
EXTT4=
EXTT5=
EXTT6=
EXTT7=
EXTT8=
EXTT9=
EXTT10=
EXTT11=
PLAYORDER=
